{"title":"House.of.Bones.(SyFy Original).2010.HDTV.Xvid-SER","uid":5328488,"size":733943524,"categoryP":"video","categoryS":"movies","magnet":"?xt=urn:btih:7130980dafdd273f5e174d2f7e0cf68624d78577&amp;dn=House.of.Bones.%28SyFy+Original%29.2010.HDTV.Xvid-SER&amp;tr=udp%3A%2F%2Ftracker.openbittorrent.com%3A80&amp;tr=udp%3A%2F%2Fopen.demonii.com%3A1337&amp;tr=udp%3A%2F%2Ftracker.coppersurfer.tk%3A6969&amp;tr=udp%3A%2F%2Fexodus.desync.com%3A6969","seeders":0,"leechers":1,"uploader":"raymondhome","files":-1,"time":1265098135,"description":"Love for All and Sharing is the first step to solving all the problems of humanity.\n\nWebsites I want to share.\n\n    &lt;a href=&quot;\nhttp://www.shareintl.org/&quot; rel=&quot;nofollow&quot; target=&quot;_NEW&quot;&gt;\nhttp://www.shareintl.org/&lt;/a&gt;\n\n    &lt;a href=&quot;\nhttp://www.lightmiddleway.com&quot; rel=&quot;nofollow&quot; target=&quot;_NEW&quot;&gt;\nhttp://www.lightmiddleway.com&lt;/a&gt;\n\n\nThank you very much\n\nNo credit for me...credit to EVERYONE for sharing\n &lt;a href=&quot;\nhttp://thepiratebay.se/user/raymondhome/&quot; rel=&quot;nofollow&quot; target=&quot;_NEW&quot;&gt;\nhttp://thepiratebay.se/user/raymondhome/&lt;/a&gt;\n\nVideo\n      Format : MPEG-4 Visual\n      Format profile : Streaming Video@L1\n      Format settings, BVOP : Yes\n      Format settings, QPel : No\n      Format settings, GMC : No warppoints\n      Format settings, Matrix : Default\n      Muxing mode : Packed bitstream\n      Codec ID : XVID\n      Codec ID/Hint : XviD\n      Duration : 1h 27mn\n      Bit rate : 983 Kbps\n      Width : 624 pixels\n      Height : 352 pixels\n      Display aspect ratio : 16/9\n      Frame rate : 29.970 fps\n      Resolution : 24 bits\n      Colorimetry : 4:2:0\n      Scan type : Progressive\n      Bits/(Pixel*Frame) : 0.149\n      Stream size : 613 MiB (88%)\n      Writing library : XviD 1.2.0.dev47 (UTC 2006-11-01)\nAudio\n      Format : MPEG Audio\n      Format version : Version 1\n      Format profile : Layer 3\n      Codec ID : 55\n      Codec ID/Hint : MP3\n      Duration : 1h 27mn\n      Bit rate mode : Constant\n      Bit rate : 128 Kbps\n      Minimum bit rate : 128 Kbps\n      Channel(s) : 2 channels\n      Sampling rate : 48.0 KHz\n      Resolution : 16 bits\n      Stream size : 79.8 MiB (11%)\n      Alignment : Aligned on interleaves\n      Interleave, duration : 33 ms (1.00 video frame)\n      Interleave, preload duration : 504 ms\n      Writing library : LAME3.97 \n      Encoding settings : CBR\n\ncredit SER &amp; poison &amp; to all the people who made it possible for me to share this with everyone\n\n*****help what we can with haiti...the world is ONE big family*****","torrent":{"xt":"urn:btih:7130980dafdd273f5e174d2f7e0cf68624d78577","amp;dn":"House.of.Bones.%28SyFy+Original%29.2010.HDTV.Xvid-SER","amp;tr":["udp%3A%2F%2Ftracker.openbittorrent.com%3A80","udp%3A%2F%2Fopen.demonii.com%3A1337","udp%3A%2F%2Ftracker.coppersurfer.tk%3A6969","udp%3A%2F%2Fexodus.desync.com%3A6969"],"infoHash":"7130980dafdd273f5e174d2f7e0cf68624d78577","infoHashBuffer":{"type":"Buffer","data":[113,48,152,13,175,221,39,63,94,23,77,47,126,12,246,134,36,215,133,119]},"announce":[],"urlList":[]}}